<svg width="99" height="150" viewBox="0 0 99 150" fill="none" xmlns="http://www.w3.org/2000/svg">
<path d="M0.698364 12.0447L12.53 0.212982L83.1121 0.212982L71.6884 12.0447H62.7127L62.7127 25.9163L76.5843 25.9163C80.501 25.9163 84.7441 28.3642 90.0479 32.4441C95.3518 36.524 96.9837 40.6039 96.9837 49.5796C96.9837 61.8193 91.4079 66.8512 87.6 69.9791C96.4125 75.2013 98.6157 85.4826 98.6157 89.9705C99.2685 94.8664 95.8958 101.53 94.1278 104.25L49.249 149.945L49.249 52.0276L62.7127 52.0276L62.7127 118.938L84.7441 95.2744C87.6816 86.7882 82.2961 77.3229 76.5843 76.0989L68.0165 76.0989L68.0165 61.8193H78.2162C80.5282 60.4593 85.0705 56.1074 84.7441 49.5796C84.4177 43.0518 76.9923 39.5159 73.3204 38.5639L49.249 38.5639V12.0447L37.0094 12.0447L37.0094 96.4983L21.9138 110.778L21.9138 12.0447L0.698364 12.0447Z" fill="#252525"/>
</svg>
